ffmpeg started on 2025-06-16 at 17:08:17
Report written to "D:\Convert\FFMetrics\reports\psnr_report-6.txt"
Log level: 32
Command line:
ffmpeg -hide_banner -nostdin -i "G:\\\xc0\xed\xe8\xec\xe5\\[\xd2\xee\xef]\\\xd0\xfb\xf6\xe0\xf0\xfc-\xe2\xe0\xec\xef\xe8\xf0\\\xd2\xc2-2\\[JamClub] Vampire Knight Guilty - 10_HEVC.mkv" -i "G:\\\xc0\xed\xe8\xec\xe5\\[\xd2\xee\xef]\\\xd0\xfb\xf6\xe0\xf0\xfc-\xe2\xe0\xec\xef\xe8\xf0\\\xd2\xc2-2\\[JamClub] Vampire Knight Guilty - 10.mp4" -lavfi "[0:v]settb=AVTB,setpts=PTS-STARTPTS,format=pix_fmts=yuv420p10,fps=24000/1001,scale=1920:1080:flags=bicubic[main];[1:v]settb=AVTB,setpts=PTS-STARTPTS,format=pix_fmts=yuv420p,fps=24000/1001,scale=1920:1080:flags=bicubic[ref];[main][ref]psnr=eof_action=endall:stats_file='D\\:/Convert/FFMetrics/logs/psnr_logfile-6.txt'" -f null -
Input #0, matroska,webm, from 'G:\Аниме\[Топ]\Рыцарь-вампир\ТВ-2\[JamClub] Vampire Knight Guilty - 10_HEVC.mkv':
  Metadata:
    COMPATIBLE_BRANDS: isomiso2avc1mp41
    MAJOR_BRAND     : isom
    MINOR_VERSION   : 512
    ENCODER         : Lavf61.7.100
  Duration: 00:24:21.97, start: -0.001000, bitrate: 1122 kb/s
  Stream #0:0: Video: hevc (Main 10), yuv420p10le(tv, bt709, progressive), 1920x1080 [SAR 1:1 DAR 16:9], 23.98 fps, 23.98 tbr, 1k tbn (default)
      Metadata:
        HANDLER_NAME    : VideoHandler
        VENDOR_ID       : [0][0][0][0]
        ENCODER         : Lavc61.19.100 libx265
        BPS             : 923617
        DURATION        : 00:24:21.876708333
        NUMBER_OF_FRAMES: 43680
        NUMBER_OF_BYTES : 168776709
        _STATISTICS_WRITING_APP: mkvpropedit v66.0.0 ('Josie') 64-bit
        _STATISTICS_WRITING_DATE_UTC: 2025-06-16 12:12:11
        _STATISTICS_TAGS: BPS DURATION NUMBER_OF_FRAMES NUMBER_OF_BYTES
  Stream #0:1(eng): Audio: aac (LC), 48000 Hz, stereo, fltp (default)
      Metadata:
        HANDLER_NAME    : SoundHandler
        VENDOR_ID       : [0][0][0][0]
        ENCODER         : Lavc61.19.100 aac
        BPS             : 194862
        DURATION        : 00:24:21.925000000
        NUMBER_OF_FRAMES: 68529
        NUMBER_OF_BYTES : 35609328
        _STATISTICS_WRITING_APP: mkvpropedit v66.0.0 ('Josie') 64-bit
        _STATISTICS_WRITING_DATE_UTC: 2025-06-16 12:12:11
        _STATISTICS_TAGS: BPS DURATION NUMBER_OF_FRAMES NUMBER_OF_BYTES
Input #1, mov,mp4,m4a,3gp,3g2,mj2, from 'G:\Аниме\[Топ]\Рыцарь-вампир\ТВ-2\[JamClub] Vampire Knight Guilty - 10.mp4':
  Metadata:
    major_brand     : isom
    minor_version   : 512
    compatible_brands: isomiso2avc1mp41
    encoder         : Lavf60.16.100
  Duration: 00:24:21.95, start: 0.000000, bitrate: 3970 kb/s
  Stream #1:0[0x1](und): Video: h264 (High) (avc1 / 0x31637661), yuv420p(progressive), 1920x1080 [SAR 1:1 DAR 16:9], 3770 kb/s, 29.88 fps, 23.98 tbr, 90k tbn (default)
      Metadata:
        handler_name    : VideoHandler
        vendor_id       : [0][0][0][0]
  Stream #1:1[0x2](eng): Audio: aac (LC) (mp4a / 0x6134706D), 48000 Hz, stereo, fltp, 191 kb/s (default)
      Metadata:
        handler_name    : SoundHandler
        vendor_id       : [0][0][0][0]
Stream mapping:
  Stream #0:0 (hevc) -> settb:default
  Stream #1:0 (h264) -> settb:default
  psnr:default -> Stream #0:0 (wrapped_avframe)
  Stream #0:1 -> #0:1 (aac (native) -> pcm_s16le (native))
Output #0, null, to 'pipe:':
  Metadata:
    COMPATIBLE_BRANDS: isomiso2avc1mp41
    MAJOR_BRAND     : isom
    MINOR_VERSION   : 512
    encoder         : Lavf61.7.100
  Stream #0:0: Video: wrapped_avframe, yuv420p10le(tv, bt709, progressive), 1920x1080 [SAR 1:1 DAR 16:9], q=2-31, 200 kb/s, 23.98 fps, 23.98 tbn
      Metadata:
        encoder         : Lavc61.19.100 wrapped_avframe
  Stream #0:1(eng): Audio: pcm_s16le, 48000 Hz, stereo, s16, 1536 kb/s (default)
      Metadata:
        HANDLER_NAME    : SoundHandler
        VENDOR_ID       : [0][0][0][0]
        _STATISTICS_TAGS: BPS DURATION NUMBER_OF_FRAMES NUMBER_OF_BYTES
        BPS             : 194862
        DURATION        : 00:24:21.925000000
        NUMBER_OF_FRAMES: 68529
        NUMBER_OF_BYTES : 35609328
        _STATISTICS_WRITING_APP: mkvpropedit v66.0.0 ('Josie') 64-bit
        _STATISTICS_WRITING_DATE_UTC: 2025-06-16 12:12:11
        encoder         : Lavc61.19.100 pcm_s16le
frame=  113 fps=0.0 q=-0.0 size=N/A time=00:00:04.71 bitrate=N/A speed=9.09x    frame=  281 fps=269 q=-0.0 size=N/A time=00:00:11.72 bitrate=N/A speed=11.2x    frame=  488 fps=314 q=-0.0 size=N/A time=00:00:20.35 bitrate=N/A speed=13.1x    frame=  722 fps=347 q=-0.0 size=N/A time=00:00:30.11 bitrate=N/A speed=14.5x    frame=  937 fps=362 q=-0.0 size=N/A time=00:00:39.08 bitrate=N/A speed=15.1x    frame= 1153 fps=372 q=-0.0 size=N/A time=00:00:48.08 bitrate=N/A speed=15.5x    frame= 1357 fps=376 q=-0.0 size=N/A time=00:00:56.59 bitrate=N/A speed=15.7x    frame= 1576 fps=381 q=-0.0 size=N/A time=00:01:05.73 bitrate=N/A speed=15.9x    frame= 1779 fps=383 q=-0.0 size=N/A time=00:01:14.19 bitrate=N/A speed=  16x    frame= 1998 fps=386 q=-0.0 size=N/A time=00:01:23.33 bitrate=N/A speed=16.1x    frame= 2229 fps=391 q=-0.0 size=N/A time=00:01:32.96 bitrate=N/A speed=16.3x    frame= 2437 fps=392 q=-0.0 size=N/A time=00:01:41.64 bitrate=N/A speed=16.4x    frame= 2645 fps=393 q=-0.0 size=N/A time=00:01:50.31 bitrate=N/A speed=16.4x    frame= 2839 fps=392 q=-0.0 size=N/A time=00:01:58.40 bitrate=N/A speed=16.3x    frame= 3049 fps=393 q=-0.0 size=N/A time=00:02:07.16 bitrate=N/A speed=16.4x    frame= 3269 fps=395 q=-0.0 size=N/A time=00:02:16.34 bitrate=N/A speed=16.5x    frame= 3470 fps=395 q=-0.0 size=N/A time=00:02:24.72 bitrate=N/A speed=16.5x    frame= 3659 fps=393 q=-0.0 size=N/A time=00:02:32.61 bitrate=N/A speed=16.4x    frame= 3823 fps=389 q=-0.0 size=N/A time=00:02:39.45 bitrate=N/A speed=16.2x    frame= 4054 fps=392 q=-0.0 size=N/A time=00:02:49.08 bitrate=N/A speed=16.3x    frame= 4269 fps=393 q=-0.0 size=N/A time=00:02:58.05 bitrate=N/A speed=16.4x    frame= 4474 fps=394 q=-0.0 size=N/A time=00:03:06.60 bitrate=N/A speed=16.4x    frame= 4732 fps=398 q=-0.0 size=N/A time=00:03:17.36 bitrate=N/A speed=16.6x    frame= 4963 fps=400 q=-0.0 size=N/A time=00:03:26.99 bitrate=N/A speed=16.7x    frame= 5165 fps=400 q=-0.0 size=N/A time=00:03:35.42 bitrate=N/A speed=16.7x    frame= 5373 fps=400 q=-0.0 size=N/A time=00:03:44.09 bitrate=N/A speed=16.7x    frame= 5589 fps=401 q=-0.0 size=N/A time=00:03:53.10 bitrate=N/A speed=16.7x    frame= 5838 fps=404 q=-0.0 size=N/A time=00:04:03.49 bitrate=N/A speed=16.8x    frame= 6067 fps=405 q=-0.0 size=N/A time=00:04:13.04 bitrate=N/A speed=16.9x    frame= 6299 fps=407 q=-0.0 size=N/A time=00:04:22.72 bitrate=N/A speed=  17x    frame= 6505 fps=406 q=-0.0 size=N/A time=00:04:31.31 bitrate=N/A speed=  17x    frame= 6749 fps=408 q=-0.0 size=N/A time=00:04:41.48 bitrate=N/A speed=  17x    frame= 6974 fps=409 q=-0.0 size=N/A time=00:04:50.87 bitrate=N/A speed=17.1x    frame= 7168 fps=408 q=-0.0 size=N/A time=00:04:58.96 bitrate=N/A speed=  17x    frame= 7394 fps=409 q=-0.0 size=N/A time=00:05:08.39 bitrate=N/A speed=17.1x    frame= 7600 fps=409 q=-0.0 size=N/A time=00:05:16.98 bitrate=N/A speed=17.1x    frame= 7828 fps=410 q=-0.0 size=N/A time=00:05:26.49 bitrate=N/A speed=17.1x    frame= 8069 fps=411 q=-0.0 size=N/A time=00:05:36.54 bitrate=N/A speed=17.1x    frame= 8281 fps=411 q=-0.0 size=N/A time=00:05:45.38 bitrate=N/A speed=17.2x    frame= 8506 fps=412 q=-0.0 size=N/A time=00:05:54.77 bitrate=N/A speed=17.2x    frame= 8751 fps=413 q=-0.0 size=N/A time=00:06:04.98 bitrate=N/A speed=17.2x    frame= 8982 fps=414 q=-0.0 size=N/A time=00:06:14.62 bitrate=N/A speed=17.3x    frame= 9194 fps=414 q=-0.0 size=N/A time=00:06:23.46 bitrate=N/A speed=17.3x    frame= 9395 fps=414 q=-0.0 size=N/A time=00:06:31.84 bitrate=N/A speed=17.2x    frame= 9619 fps=414 q=-0.0 size=N/A time=00:06:41.19 bitrate=N/A speed=17.3x    frame= 9829 fps=414 q=-0.0 size=N/A time=00:06:49.95 bitrate=N/A speed=17.3x    frame=10035 fps=414 q=-0.0 size=N/A time=00:06:58.54 bitrate=N/A speed=17.3x    frame=10216 fps=412 q=-0.0 size=N/A time=00:07:06.09 bitrate=N/A speed=17.2x    frame=10436 fps=412 q=-0.0 size=N/A time=00:07:15.26 bitrate=N/A speed=17.2x    frame=10677 fps=413 q=-0.0 size=N/A time=00:07:25.31 bitrate=N/A speed=17.2x    frame=10914 fps=414 q=-0.0 size=N/A time=00:07:35.20 bitrate=N/A speed=17.3x    frame=11148 fps=415 q=-0.0 size=N/A time=00:07:44.96 bitrate=N/A speed=17.3x    frame=11387 fps=416 q=-0.0 size=N/A time=00:07:54.93 bitrate=N/A speed=17.4x    frame=11621 fps=417 q=-0.0 size=N/A time=00:08:04.69 bitrate=N/A speed=17.4x    frame=11850 fps=417 q=-0.0 size=N/A time=00:08:14.24 bitrate=N/A speed=17.4x    frame=12077 fps=418 q=-0.0 size=N/A time=00:08:23.71 bitrate=N/A speed=17.4x    frame=12287 fps=417 q=-0.0 size=N/A time=00:08:32.47 bitrate=N/A speed=17.4x    frame=12474 fps=417 q=-0.0 size=N/A time=00:08:40.26 bitrate=N/A speed=17.4x    frame=12685 fps=416 q=-0.0 size=N/A time=00:08:49.07 bitrate=N/A speed=17.4x    frame=12861 fps=415 q=-0.0 size=N/A time=00:08:56.41 bitrate=N/A speed=17.3x    frame=13076 fps=415 q=-0.0 size=N/A time=00:09:05.37 bitrate=N/A speed=17.3x    frame=13318 fps=416 q=-0.0 size=N/A time=00:09:15.47 bitrate=N/A speed=17.4x    frame=13508 fps=415 q=-0.0 size=N/A time=00:09:23.39 bitrate=N/A speed=17.3x    frame=13721 fps=415 q=-0.0 size=N/A time=00:09:32.28 bitrate=N/A speed=17.3x    frame=13959 fps=416 q=-0.0 size=N/A time=00:09:42.20 bitrate=N/A speed=17.3x    frame=14197 fps=417 q=-0.0 size=N/A time=00:09:52.13 bitrate=N/A speed=17.4x    frame=14428 fps=417 q=-0.0 size=N/A time=00:10:01.76 bitrate=N/A speed=17.4x    frame=14643 fps=417 q=-0.0 size=N/A time=00:10:10.73 bitrate=N/A speed=17.4x    frame=14844 fps=417 q=-0.0 size=N/A time=00:10:19.11 bitrate=N/A speed=17.4x    frame=15079 fps=417 q=-0.0 size=N/A time=00:10:28.91 bitrate=N/A speed=17.4x    frame=15287 fps=417 q=-0.0 size=N/A time=00:10:37.59 bitrate=N/A speed=17.4x    frame=15513 fps=417 q=-0.0 size=N/A time=00:10:47.02 bitrate=N/A speed=17.4x    frame=15725 fps=417 q=-0.0 size=N/A time=00:10:55.86 bitrate=N/A speed=17.4x    frame=15942 fps=417 q=-0.0 size=N/A time=00:11:04.91 bitrate=N/A speed=17.4x    frame=16163 fps=418 q=-0.0 size=N/A time=00:11:14.13 bitrate=N/A speed=17.4x    frame=16386 fps=418 q=-0.0 size=N/A time=00:11:23.43 bitrate=N/A speed=17.4x    frame=16625 fps=418 q=-0.0 size=N/A time=00:11:33.40 bitrate=N/A speed=17.4x    frame=16878 fps=419 q=-0.0 size=N/A time=00:11:43.95 bitrate=N/A speed=17.5x    frame=17118 fps=420 q=-0.0 size=N/A time=00:11:53.96 bitrate=N/A speed=17.5x    frame=17355 fps=420 q=-0.0 size=N/A time=00:12:03.84 bitrate=N/A speed=17.5x    frame=17570 fps=420 q=-0.0 size=N/A time=00:12:12.81 bitrate=N/A speed=17.5x    frame=17809 fps=421 q=-0.0 size=N/A time=00:12:22.78 bitrate=N/A speed=17.5x    frame=18049 fps=421 q=-0.0 size=N/A time=00:12:32.79 bitrate=N/A speed=17.6x    frame=18246 fps=421 q=-0.0 size=N/A time=00:12:41.01 bitrate=N/A speed=17.6x    frame=18489 fps=421 q=-0.0 size=N/A time=00:12:51.14 bitrate=N/A speed=17.6x    frame=18725 fps=422 q=-0.0 size=N/A time=00:13:00.98 bitrate=N/A speed=17.6x    frame=18943 fps=422 q=-0.0 size=N/A time=00:13:10.08 bitrate=N/A speed=17.6x    frame=19162 fps=422 q=-0.0 size=N/A time=00:13:19.21 bitrate=N/A speed=17.6x    frame=19373 fps=422 q=-0.0 size=N/A time=00:13:28.01 bitrate=N/A speed=17.6x    frame=19583 fps=422 q=-0.0 size=N/A time=00:13:36.77 bitrate=N/A speed=17.6x    frame=19817 fps=422 q=-0.0 size=N/A time=00:13:46.53 bitrate=N/A speed=17.6x    frame=20052 fps=422 q=-0.0 size=N/A time=00:13:56.33 bitrate=N/A speed=17.6x    frame=20288 fps=423 q=-0.0 size=N/A time=00:14:06.17 bitrate=N/A speed=17.6x    frame=20513 fps=423 q=-0.0 size=N/A time=00:14:15.56 bitrate=N/A speed=17.6x    frame=20750 fps=423 q=-0.0 size=N/A time=00:14:25.44 bitrate=N/A speed=17.7x    frame=20990 fps=424 q=-0.0 size=N/A time=00:14:35.45 bitrate=N/A speed=17.7x    frame=21224 fps=424 q=-0.0 size=N/A time=00:14:45.21 bitrate=N/A speed=17.7x    frame=21437 fps=424 q=-0.0 size=N/A time=00:14:54.10 bitrate=N/A speed=17.7x    frame=21654 fps=424 q=-0.0 size=N/A time=00:15:03.15 bitrate=N/A speed=17.7x    frame=21882 fps=424 q=-0.0 size=N/A time=00:15:12.66 bitrate=N/A speed=17.7x    frame=22120 fps=424 q=-0.0 size=N/A time=00:15:22.58 bitrate=N/A speed=17.7x    frame=22345 fps=424 q=-0.0 size=N/A time=00:15:31.97 bitrate=N/A speed=17.7x    frame=22576 fps=425 q=-0.0 size=N/A time=00:15:41.60 bitrate=N/A speed=17.7x    frame=22806 fps=425 q=-0.0 size=N/A time=00:15:51.20 bitrate=N/A speed=17.7x    frame=23040 fps=425 q=-0.0 size=N/A time=00:16:00.96 bitrate=N/A speed=17.7x    frame=23292 fps=426 q=-0.0 size=N/A time=00:16:11.47 bitrate=N/A speed=17.8x    frame=23518 fps=426 q=-0.0 size=N/A time=00:16:20.89 bitrate=N/A speed=17.8x    frame=23744 fps=426 q=-0.0 size=N/A time=00:16:30.32 bitrate=N/A speed=17.8x    frame=23973 fps=426 q=-0.0 size=N/A time=00:16:39.87 bitrate=N/A speed=17.8x    frame=24221 fps=427 q=-0.0 size=N/A time=00:16:50.21 bitrate=N/A speed=17.8x    frame=24467 fps=427 q=-0.0 size=N/A time=00:17:00.47 bitrate=N/A speed=17.8x    frame=24716 fps=428 q=-0.0 size=N/A time=00:17:10.86 bitrate=N/A speed=17.8x    frame=24964 fps=428 q=-0.0 size=N/A time=00:17:21.20 bitrate=N/A speed=17.9x    frame=25222 fps=429 q=-0.0 size=N/A time=00:17:31.96 bitrate=N/A speed=17.9x    frame=25444 fps=429 q=-0.0 size=N/A time=00:17:41.22 bitrate=N/A speed=17.9x    frame=25669 fps=429 q=-0.0 size=N/A time=00:17:50.61 bitrate=N/A speed=17.9x    frame=25912 fps=429 q=-0.0 size=N/A time=00:18:00.74 bitrate=N/A speed=17.9x    frame=26151 fps=429 q=-0.0 size=N/A time=00:18:10.71 bitrate=N/A speed=17.9x    frame=26397 fps=430 q=-0.0 size=N/A time=00:18:20.97 bitrate=N/A speed=17.9x    frame=26644 fps=430 q=-0.0 size=N/A time=00:18:31.27 bitrate=N/A speed=17.9x    frame=26875 fps=430 q=-0.0 size=N/A time=00:18:40.91 bitrate=N/A speed=17.9x    frame=27079 fps=430 q=-0.0 size=N/A time=00:18:49.41 bitrate=N/A speed=17.9x    frame=27319 fps=430 q=-0.0 size=N/A time=00:18:59.42 bitrate=N/A speed=17.9x    frame=27537 fps=430 q=-0.0 size=N/A time=00:19:08.52 bitrate=N/A speed=17.9x    frame=27765 fps=430 q=-0.0 size=N/A time=00:19:18.03 bitrate=N/A speed=  18x    frame=28015 fps=431 q=-0.0 size=N/A time=00:19:28.45 bitrate=N/A speed=  18x    frame=28246 fps=431 q=-0.0 size=N/A time=00:19:38.09 bitrate=N/A speed=  18x    frame=28484 fps=431 q=-0.0 size=N/A time=00:19:48.02 bitrate=N/A speed=  18x    frame=28703 fps=431 q=-0.0 size=N/A time=00:19:57.15 bitrate=N/A speed=  18x    frame=28949 fps=431 q=-0.0 size=N/A time=00:20:07.41 bitrate=N/A speed=  18x    frame=29193 fps=432 q=-0.0 size=N/A time=00:20:17.59 bitrate=N/A speed=  18x    frame=29435 fps=432 q=-0.0 size=N/A time=00:20:27.68 bitrate=N/A speed=  18x    frame=29665 fps=432 q=-0.0 size=N/A time=00:20:37.27 bitrate=N/A speed=  18x    frame=29898 fps=432 q=-0.0 size=N/A time=00:20:46.99 bitrate=N/A speed=  18x    frame=30133 fps=433 q=-0.0 size=N/A time=00:20:56.79 bitrate=N/A speed=  18x    frame=30354 fps=433 q=-0.0 size=N/A time=00:21:06.01 bitrate=N/A speed=  18x    frame=30598 fps=433 q=-0.0 size=N/A time=00:21:16.19 bitrate=N/A speed=18.1x    frame=30843 fps=433 q=-0.0 size=N/A time=00:21:26.41 bitrate=N/A speed=18.1x    frame=31059 fps=433 q=-0.0 size=N/A time=00:21:35.41 bitrate=N/A speed=18.1x    frame=31278 fps=433 q=-0.0 size=N/A time=00:21:44.55 bitrate=N/A speed=18.1x    frame=31514 fps=433 q=-0.0 size=N/A time=00:21:54.39 bitrate=N/A speed=18.1x    frame=31748 fps=433 q=-0.0 size=N/A time=00:22:04.15 bitrate=N/A speed=18.1x    frame=31985 fps=433 q=-0.0 size=N/A time=00:22:14.04 bitrate=N/A speed=18.1x    frame=32233 fps=434 q=-0.0 size=N/A time=00:22:24.38 bitrate=N/A speed=18.1x    frame=32466 fps=434 q=-0.0 size=N/A time=00:22:34.10 bitrate=N/A speed=18.1x    frame=32692 fps=434 q=-0.0 size=N/A time=00:22:43.52 bitrate=N/A speed=18.1x    frame=32903 fps=434 q=-0.0 size=N/A time=00:22:52.32 bitrate=N/A speed=18.1x    frame=33124 fps=434 q=-0.0 size=N/A time=00:23:01.54 bitrate=N/A speed=18.1x    frame=33322 fps=433 q=-0.0 size=N/A time=00:23:09.80 bitrate=N/A speed=18.1x    frame=33525 fps=433 q=-0.0 size=N/A time=00:23:18.27 bitrate=N/A speed=18.1x    frame=33728 fps=433 q=-0.0 size=N/A time=00:23:26.73 bitrate=N/A speed=18.1x    frame=33937 fps=433 q=-0.0 size=N/A time=00:23:35.45 bitrate=N/A speed=  18x    frame=34155 fps=433 q=-0.0 size=N/A time=00:23:44.54 bitrate=N/A speed=  18x    frame=34383 fps=433 q=-0.0 size=N/A time=00:23:54.05 bitrate=N/A speed=  18x    frame=34572 fps=432 q=-0.0 size=N/A time=00:24:01.94 bitrate=N/A speed=  18x    frame=34766 fps=432 q=-0.0 size=N/A time=00:24:10.03 bitrate=N/A speed=  18x    frame=34994 fps=432 q=-0.0 size=N/A time=00:24:19.54 bitrate=N/A speed=  18x    [Parsed_psnr_10 @ 0000022b1812a280] PSNR y:49.236751 u:51.403384 v:51.712809 average:49.881127 min:31.695489 max:inf
[out#0/null @ 0000022b0d88f200] video:15061KiB audio:274116KiB subtitle:0KiB other streams:0KiB global headers:0KiB muxing overhead: unknown
frame=35050 fps=432 q=-0.0 Lsize=N/A time=00:24:21.87 bitrate=N/A speed=  18x    
